<?xml version="1.0" standalone="no"?>
<!DOCTYPE svg PUBLIC "-//W3C//DTD SVG 20010904//EN"
 "http://www.w3.org/TR/2001/REC-SVG-20010904/DTD/svg10.dtd">
<svg version="1.0" xmlns="http://www.w3.org/2000/svg"
 width="300.000000pt" height="300.000000pt" viewBox="0 0 300.000000 300.000000"
 preserveAspectRatio="xMidYMid meet">
<metadata>
Created by potrace 1.11, written by Peter Selinger 2001-2013
</metadata>
<g transform="translate(0.000000,300.000000) scale(0.100000,-0.100000)"
fill="#000000" stroke="none">
<path d="M1495 2562 c-115 -119 -215 -218 -221 -220 -6 -2 -77 66 -158 149
l-146 153 0 -77 c0 -140 45 -274 118 -350 l36 -37 -76 -78 c-76 -77 -90 -102
-103 -189 -9 -56 1 -71 108 -180 l90 -92 -24 -38 c-14 -21 -35 -63 -47 -93
-27 -70 -86 -270 -80 -275 2 -2 67 59 143 135 l140 140 234 -232 233 -233 -6
71 c-7 80 -57 252 -106 364 -18 41 -59 111 -90 155 l-58 80 52 55 c61 64 80
112 74 182 -5 46 -11 55 -73 118 l-68 69 49 57 c102 120 159 252 184 424 7 47
10 102 8 122 l-3 38 -210 -218z"/>
<path d="M1232 2750 c-37 -23 -72 -88 -72 -135 0 -77 68 -155 135 -155 67 0
135 78 135 155 0 77 -68 155 -135 155 -16 0 -45 -9 -63 -20z"/>
<path d="M159 733 l-25 -4 0 -164 -1 -165 44 0 43 0 1 78 1 77 39 -83 c22 -46
44 -82 50 -80 7 2 27 40 45 83 l33 80 1 -77 0 -78 48 0 47 0 -1 167 -1 168
-41 2 -41 1 -42 -89 c-23 -49 -45 -89 -49 -89 -4 0 -26 41 -49 90 -43 93 -42
92 -102 83z"/>
<path d="M1000 570 l0 -170 45 0 c41 0 45 2 45 25 0 18 5 25 20 25 11 0 27
-11 36 -25 13 -21 24 -25 61 -25 45 0 45 0 29 23 -28 38 -28 44 -2 70 27 28
34 73 16 107 -21 39 -103 47 -142 12 -17 -14 -18 -11 -18 56 l0 72 -45 0 -45
0 0 -170z m168 -27 c2 -16 -4 -26 -22 -34 -31 -14 -56 -6 -56 19 0 45 72 58
78 15z"/>
<path d="M1717 598 c2 -73 6 -142 8 -153 6 -30 42 -47 109 -52 76 -6 136 13
152 47 7 14 14 85 16 158 l5 132 -48 0 -48 0 -3 -127 -3 -128 -45 0 -45 0 -3
128 -3 127 -48 0 -48 0 4 -132z"/>
<path d="M2327 713 c-14 -13 -6 -53 11 -62 42 -22 90 21 62 54 -13 15 -61 20
-73 8z"/>
<path d="M1540 666 c0 -25 -4 -46 -10 -46 -5 0 -10 -13 -10 -30 0 -16 5 -30
10 -30 6 0 10 -28 10 -63 0 -80 14 -102 67 -101 53 2 83 19 83 49 0 20 -6 24
-32 27 -30 3 -33 6 -36 41 -3 35 -2 37 27 37 29 0 31 2 31 38 0 35 -2 38 -27
37 -25 0 -28 4 -31 38 -2 27 -8 37 -20 37 -9 0 -27 3 -39 6 -21 6 -23 3 -23
-40z"/>
<path d="M2460 666 c0 -34 -4 -46 -15 -46 -20 0 -20 -56 0 -63 10 -4 15 -26
17 -74 3 -63 5 -69 30 -81 21 -10 37 -10 68 -2 35 9 40 14 40 40 0 27 -3 30
-30 30 -28 0 -30 2 -30 39 0 36 3 40 28 43 22 2 28 8 30 36 3 30 1 32 -27 32
-29 0 -31 2 -31 40 0 36 -3 40 -24 40 -13 0 -31 3 -40 6 -13 5 -16 -2 -16 -40z"/>
<path d="M604 633 c-12 -2 -34 -18 -50 -34 -25 -26 -29 -38 -29 -84 0 -45 4
-58 29 -84 36 -37 68 -46 106 -26 18 9 31 11 35 5 3 -6 23 -10 43 -10 l37 0 0
110 0 109 -28 7 c-16 3 -33 2 -39 -4 -6 -6 -19 -5 -36 4 -27 14 -31 14 -68 7z
m76 -83 c24 -24 25 -43 4 -65 -43 -43 -110 19 -69 65 23 25 40 25 65 0z"/>
<path d="M1343 630 c-32 -13 -63 -68 -63 -113 0 -97 91 -152 185 -113 39 16
40 19 24 47 -8 16 -17 18 -44 13 -38 -7 -85 1 -85 15 0 5 31 12 69 16 86 9 93
20 58 93 -21 44 -90 64 -144 42z m72 -75 c0 -15 -8 -21 -32 -23 -36 -4 -38 -1
-22 29 14 27 54 22 54 -6z"/>
<path d="M832 623 c-16 -3 -22 -9 -18 -20 3 -8 6 -57 6 -109 l0 -94 43 0 44 0
-1 68 -1 67 32 3 c28 3 31 7 35 43 4 48 -3 55 -44 38 -24 -10 -33 -10 -36 -1
-4 12 -17 13 -60 5z"/>
<path d="M2056 623 c-16 -4 -18 -11 -12 -50 3 -25 6 -74 6 -109 l0 -64 40 0
39 0 3 78 c3 73 4 77 27 80 33 5 42 -13 39 -88 l-2 -65 42 -3 42 -3 0 93 c0
114 -12 138 -68 138 -21 0 -47 -7 -59 -15 -19 -13 -22 -13 -27 0 -5 15 -32 18
-70 8z"/>
<path d="M2620 572 c0 -51 5 -65 35 -108 19 -27 35 -54 35 -60 0 -13 -23 -24
-51 -24 -22 0 -23 -1 -7 -35 10 -23 17 -26 57 -23 45 3 46 3 108 96 58 85 63
97 63 147 0 29 -4 57 -10 60 -5 3 -25 3 -44 0 -32 -7 -34 -9 -29 -39 5 -34
-19 -106 -36 -106 -19 0 -43 62 -39 101 4 40 -7 49 -59 49 -21 0 -23 -4 -23
-58z"/>
<path d="M2320 510 l0 -110 43 0 42 0 0 110 0 110 -42 0 -43 0 0 -110z"/>
</g>
</svg>
